<svg xmlns="http://www.w3.org/2000/svg" width="450" viewBox="0 0 450 300" height="300" version="1.0"><g fill="#FD6155" fill-opacity=".302"><g><g><path d="M 43.585938 -36.023438 C 41.296875 -23.585938 32.3125 -17.472656 24.953125 -16.191406 C 17.6875 -14.925781 9.757812 -18 8.699219 -24.074219 C 8.460938 -25.453125 8.371094 -27.050781 8.652344 -28.710938 L 14.621094 -63.019531 C 15.773438 -69.476562 19.386719 -71.050781 21.59375 -71.4375 C 23.710938 -71.804688 25.40625 -70.773438 25.886719 -68.011719 C 26.109375 -66.726562 26.03125 -65.003906 25.613281 -63.035156 C 25.449219 -62.34375 25.472656 -61.683594 25.582031 -61.039062 C 26.144531 -57.820312 29.734375 -55.699219 33.324219 -56.320312 C 36.542969 -56.882812 39.746094 -59.714844 40.347656 -66.074219 C 40.574219 -68.578125 40.464844 -70.835938 40.128906 -72.765625 C 38.367188 -82.886719 29.339844 -87.382812 18.851562 -85.554688 C 12.136719 -84.386719 2.21875 -79.816406 -0.253906 -65.167969 L -6.035156 -30.324219 C -6.550781 -27.296875 -6.558594 -24.070312 -6.078125 -21.3125 C -3.980469 -9.257812 8.738281 -1.519531 24.746094 -4.308594 C 37.535156 -6.535156 52.316406 -15.835938 54.878906 -34.859375 C 54.9375 -35.628906 54.914062 -36.289062 54.820312 -36.839844 C 54.257812 -40.0625 51.085938 -41.402344 48.234375 -40.90625 C 45.84375 -40.492188 43.75 -38.894531 43.585938 -36.023438 Z M 43.585938 -36.023438" transform="translate(124.807 186.84)"/></g></g></g><g fill="#FD6155" fill-opacity=".302"><g><g><path d="M 47.796875 -35.808594 C 45.667969 -24.0625 41.242188 -18.457031 37.101562 -17.738281 C 35.355469 -17.433594 34.074219 -18.253906 33.832031 -19.632812 C 33.769531 -20 33.78125 -20.476562 33.902344 -20.878906 L 37.714844 -43.625 C 38.054688 -45.488281 37.949219 -47.175781 37.675781 -48.738281 C 36.394531 -56.097656 29.609375 -60.792969 22.15625 -59.496094 C 19.949219 -59.113281 18.261719 -58.441406 16.476562 -57.277344 L 19.324219 -75.210938 C 19.527344 -76.765625 19.75 -78.222656 19.539062 -79.421875 C 18.867188 -83.285156 15.449219 -84.964844 12.410156 -84.433594 C 8.824219 -83.8125 6.984375 -81.308594 6.085938 -76.128906 L -5.105469 -9.726562 C -5.339844 -8.359375 -5.316406 -7.132812 -5.125 -6.027344 C -4.40625 -1.886719 -0.921875 0.160156 2.207031 -0.382812 C 4.875 -0.847656 7.347656 -2.984375 8.054688 -7.089844 L 13.710938 -40.492188 C 15.035156 -44.324219 17.695312 -47.535156 20.550781 -48.03125 C 22.390625 -48.351562 23.917969 -47.195312 24.207031 -45.539062 C 24.300781 -44.988281 24.304688 -44.421875 24.125 -43.820312 L 20.757812 -23.421875 C 20.40625 -21.085938 20.390625 -19 20.710938 -17.160156 C 22.214844 -8.511719 30.359375 -5.285156 38.179688 -6.644531 C 46.917969 -8.167969 56.003906 -15.339844 59.296875 -35.628906 C 59.367188 -36.304688 59.363281 -36.875 59.265625 -37.425781 C 58.769531 -40.277344 55.691406 -41.636719 52.746094 -41.125 C 50.445312 -40.722656 48.1875 -39.003906 47.796875 -35.808594 Z M 47.796875 -35.808594" transform="translate(169.791 179.01)"/></g></g></g><g fill="#FD6155" fill-opacity=".302"><g><g><path d="M 42.035156 -34.046875 C 39.84375 -22.671875 30.9375 -16.664062 23.117188 -15.304688 C 16.402344 -14.132812 11.609375 -16.617188 10.875 -20.851562 C 10.730469 -21.679688 10.675781 -22.523438 10.882812 -23.507812 L 11.316406 -25.382812 C 14.273438 -24.191406 17.777344 -23.664062 21.457031 -24.304688 C 29.828125 -25.761719 36.277344 -32.285156 37.320312 -41 C 37.472656 -42.828125 37.445312 -44.621094 37.171875 -46.1875 C 35.652344 -54.925781 27.582031 -60.441406 17.1875 -58.632812 C 9 -57.207031 1.828125 -51.027344 0.210938 -41.269531 L -2.480469 -24.59375 C -2.832031 -22.257812 -2.90625 -19.96875 -2.539062 -17.851562 C -0.632812 -6.902344 10.855469 -1.890625 24.289062 -4.226562 C 37.074219 -6.453125 50.523438 -15.238281 53.535156 -33.867188 C 53.683594 -34.652344 53.664062 -35.3125 53.566406 -35.863281 C 53.070312 -38.714844 50.222656 -39.832031 47.464844 -39.351562 C 44.886719 -38.902344 42.367188 -37.042969 42.035156 -34.046875 Z M 18.800781 -47.726562 C 21.378906 -48.175781 23.402344 -46.347656 23.867188 -43.679688 C 23.992188 -42.945312 24.03125 -42.191406 23.882812 -41.410156 C 23.492188 -38.210938 20.921875 -36.628906 18.164062 -36.148438 C 16.414062 -35.84375 14.601562 -35.90625 13.1875 -36.417969 L 14.15625 -42.273438 C 14.671875 -45.304688 16.683594 -47.359375 18.800781 -47.726562 Z M 18.800781 -47.726562" transform="translate(219.099 170.426)"/></g></g></g><g fill="#FD6155" fill-opacity=".302"><g><g><path d="M 39.769531 -35.074219 C 37.144531 -22.390625 28.988281 -16.421875 22 -15.203125 C 15.648438 -14.097656 10.960938 -17.074219 10.144531 -21.765625 C 9.96875 -22.777344 9.960938 -23.914062 10.121094 -25.175781 L 12.960938 -42.066406 C 13.40625 -44.417969 15.003906 -46.117188 16.476562 -46.375 C 18.316406 -46.695312 19.429688 -45.75 19.703125 -44.1875 C 19.878906 -43.175781 19.703125 -42.007812 19.28125 -40.609375 C 18.980469 -39.609375 18.867188 -38.640625 19.027344 -37.71875 C 19.585938 -34.5 23.054688 -32.542969 26.277344 -33.105469 C 28.945312 -33.570312 31.507812 -35.722656 32.425781 -40.242188 C 32.914062 -42.886719 32.898438 -45.15625 32.53125 -47.273438 C 31.023438 -55.921875 22.984375 -59.640625 15.070312 -58.261719 C 7.804688 -57 0.71875 -51.40625 -0.910156 -41.167969 L -3.464844 -24.800781 C -3.816406 -22.464844 -3.800781 -20.191406 -3.445312 -18.167969 C -1.605469 -7.585938 8.925781 -1.554688 22.449219 -3.90625 C 36.0625 -6.277344 48.148438 -16.34375 51.125 -34.113281 C 51.289062 -34.804688 51.265625 -35.464844 51.171875 -36.015625 C 50.660156 -38.960938 47.488281 -40.304688 44.636719 -39.808594 C 42.335938 -39.40625 40.226562 -37.902344 39.769531 -35.074219 Z M 39.769531 -35.074219" transform="translate(262.703 162.836)"/></g></g></g><g fill="#FD6155" fill-opacity=".302"><g><g><path d="M 46.5 -34.539062 C 44.898438 -24.6875 41.148438 -18.441406 36.550781 -17.640625 C 35.261719 -17.417969 34.675781 -18.074219 34.53125 -18.902344 C 34.402344 -19.636719 34.425781 -20.589844 34.558594 -21.464844 C 35.183594 -26.03125 35.453125 -27.214844 35.050781 -29.515625 C 34.667969 -31.722656 33.78125 -33.558594 32.25 -34.714844 C 34.570312 -36.632812 36.5625 -39.351562 37.300781 -43.269531 C 37.582031 -44.929688 37.644531 -46.742188 37.355469 -48.398438 C 36.125 -55.480469 29.421875 -60.761719 21.417969 -59.367188 C 19.671875 -59.0625 18.308594 -58.730469 16.746094 -57.890625 L 19.585938 -75.351562 C 19.820312 -76.71875 19.980469 -77.980469 19.789062 -79.085938 C 19.082031 -83.132812 15.632812 -84.996094 12.410156 -84.433594 C 9.375 -83.90625 7.152344 -81.433594 6.355469 -76.746094 L -5.082031 -6.320312 C -5.136719 -5.550781 -5.132812 -4.984375 -5.019531 -4.339844 C -4.445312 -1.027344 -1.289062 0.222656 1.839844 -0.320312 C 5.152344 -0.898438 8.3125 -3.4375 8.867188 -7.324219 L 11.421875 -25.875 C 13.671875 -24.371094 15.699219 -24.15625 17.355469 -24.441406 C 19.195312 -24.761719 20.554688 -25.664062 21.320312 -26.175781 C 21.917969 -26.5625 21.332031 -24.472656 21.125 -23.488281 C 20.636719 -20.84375 20.609375 -18.28125 21.011719 -15.980469 C 22.242188 -8.894531 27.507812 -4.789062 36.523438 -6.359375 C 48.945312 -8.519531 56.019531 -19.609375 58.136719 -34.667969 C 58.222656 -35.253906 58.234375 -35.730469 58.15625 -36.1875 C 57.675781 -38.949219 54.535156 -40.109375 51.683594 -39.613281 C 49.199219 -39.179688 46.832031 -37.535156 46.5 -34.539062 Z M 13.230469 -36.710938 L 14.070312 -41.691406 C 15.148438 -45.289062 17.695312 -47.535156 20.363281 -48 C 22.664062 -48.398438 24.621094 -47.507812 24.972656 -45.484375 C 25.070312 -44.933594 25.074219 -44.363281 24.910156 -43.671875 C 24.449219 -41.414062 22.773438 -39.605469 20.679688 -38.574219 C 19.542969 -38.566406 18.5 -38.574219 17.488281 -38.398438 C 15.648438 -38.078125 14.148438 -37.4375 13.230469 -36.710938 Z M 13.230469 -36.710938" transform="translate(303.823 155.679)"/></g></g></g><g fill="#FD6155" fill-opacity=".502"><g><g><path d="M 43.585938 -36.023438 C 41.296875 -23.585938 32.3125 -17.472656 24.953125 -16.191406 C 17.6875 -14.925781 9.757812 -18 8.699219 -24.074219 C 8.460938 -25.453125 8.371094 -27.050781 8.652344 -28.710938 L 14.621094 -63.019531 C 15.773438 -69.476562 19.386719 -71.050781 21.59375 -71.4375 C 23.710938 -71.804688 25.40625 -70.773438 25.886719 -68.011719 C 26.109375 -66.726562 26.03125 -65.003906 25.613281 -63.035156 C 25.449219 -62.34375 25.472656 -61.683594 25.582031 -61.039062 C 26.144531 -57.820312 29.734375 -55.699219 33.324219 -56.320312 C 36.542969 -56.882812 39.746094 -59.714844 40.347656 -66.074219 C 40.574219 -68.578125 40.464844 -70.835938 40.128906 -72.765625 C 38.367188 -82.886719 29.339844 -87.382812 18.851562 -85.554688 C 12.136719 -84.386719 2.21875 -79.816406 -0.253906 -65.167969 L -6.035156 -30.324219 C -6.550781 -27.296875 -6.558594 -24.070312 -6.078125 -21.3125 C -3.980469 -9.257812 8.738281 -1.519531 24.746094 -4.308594 C 37.535156 -6.535156 52.316406 -15.835938 54.878906 -34.859375 C 54.9375 -35.628906 54.914062 -36.289062 54.820312 -36.839844 C 54.257812 -40.0625 51.085938 -41.402344 48.234375 -40.90625 C 45.84375 -40.492188 43.75 -38.894531 43.585938 -36.023438 Z M 43.585938 -36.023438" transform="translate(120.444 181.972)"/></g></g></g><g fill="#FD6155" fill-opacity=".502"><g><g><path d="M 47.796875 -35.808594 C 45.667969 -24.0625 41.242188 -18.457031 37.101562 -17.738281 C 35.355469 -17.433594 34.074219 -18.253906 33.832031 -19.632812 C 33.769531 -20 33.78125 -20.476562 33.902344 -20.878906 L 37.714844 -43.625 C 38.054688 -45.488281 37.949219 -47.175781 37.675781 -48.738281 C 36.394531 -56.097656 29.609375 -60.792969 22.15625 -59.496094 C 19.949219 -59.113281 18.261719 -58.441406 16.476562 -57.277344 L 19.324219 -75.210938 C 19.527344 -76.765625 19.75 -78.222656 19.539062 -79.421875 C 18.867188 -83.285156 15.449219 -84.964844 12.410156 -84.433594 C 8.824219 -83.8125 6.984375 -81.308594 6.085938 -76.128906 L -5.105469 -9.726562 C -5.339844 -8.359375 -5.316406 -7.132812 -5.125 -6.027344 C -4.40625 -1.886719 -0.921875 0.160156 2.207031 -0.382812 C 4.875 -0.847656 7.347656 -2.984375 8.054688 -7.089844 L 13.710938 -40.492188 C 15.035156 -44.324219 17.695312 -47.535156 20.550781 -48.03125 C 22.390625 -48.351562 23.917969 -47.195312 24.207031 -45.539062 C 24.300781 -44.988281 24.304688 -44.421875 24.125 -43.820312 L 20.757812 -23.421875 C 20.40625 -21.085938 20.390625 -19 20.710938 -17.160156 C 22.214844 -8.511719 30.359375 -5.285156 38.179688 -6.644531 C 46.917969 -8.167969 56.003906 -15.339844 59.296875 -35.628906 C 59.367188 -36.304688 59.363281 -36.875 59.265625 -37.425781 C 58.769531 -40.277344 55.691406 -41.636719 52.746094 -41.125 C 50.445312 -40.722656 48.1875 -39.003906 47.796875 -35.808594 Z M 47.796875 -35.808594" transform="translate(165.428 174.142)"/></g></g></g><g fill="#FD6155" fill-opacity=".502"><g><g><path d="M 42.035156 -34.046875 C 39.84375 -22.671875 30.9375 -16.664062 23.117188 -15.304688 C 16.402344 -14.132812 11.609375 -16.617188 10.875 -20.851562 C 10.730469 -21.679688 10.675781 -22.523438 10.882812 -23.507812 L 11.316406 -25.382812 C 14.273438 -24.191406 17.777344 -23.664062 21.457031 -24.304688 C 29.828125 -25.761719 36.277344 -32.285156 37.320312 -41 C 37.472656 -42.828125 37.445312 -44.621094 37.171875 -46.1875 C 35.652344 -54.925781 27.582031 -60.441406 17.1875 -58.632812 C 9 -57.207031 1.828125 -51.027344 0.210938 -41.269531 L -2.480469 -24.59375 C -2.832031 -22.257812 -2.90625 -19.96875 -2.539062 -17.851562 C -0.632812 -6.902344 10.855469 -1.890625 24.289062 -4.226562 C 37.074219 -6.453125 50.523438 -15.238281 53.535156 -33.867188 C 53.683594 -34.652344 53.664062 -35.3125 53.566406 -35.863281 C 53.070312 -38.714844 50.222656 -39.832031 47.464844 -39.351562 C 44.886719 -38.902344 42.367188 -37.042969 42.035156 -34.046875 Z M 18.800781 -47.726562 C 21.378906 -48.175781 23.402344 -46.347656 23.867188 -43.679688 C 23.992188 -42.945312 24.03125 -42.191406 23.882812 -41.410156 C 23.492188 -38.210938 20.921875 -36.628906 18.164062 -36.148438 C 16.414062 -35.84375 14.601562 -35.90625 13.1875 -36.417969 L 14.15625 -42.273438 C 14.671875 -45.304688 16.683594 -47.359375 18.800781 -47.726562 Z M 18.800781 -47.726562" transform="translate(214.735 165.559)"/></g></g></g><g fill="#FD6155" fill-opacity=".502"><g><g><path d="M 39.769531 -35.074219 C 37.144531 -22.390625 28.988281 -16.421875 22 -15.203125 C 15.648438 -14.097656 10.960938 -17.074219 10.144531 -21.765625 C 9.96875 -22.777344 9.960938 -23.914062 10.121094 -25.175781 L 12.960938 -42.066406 C 13.40625 -44.417969 15.003906 -46.117188 16.476562 -46.375 C 18.316406 -46.695312 19.429688 -45.75 19.703125 -44.1875 C 19.878906 -43.175781 19.703125 -42.007812 19.28125 -40.609375 C 18.980469 -39.609375 18.867188 -38.640625 19.027344 -37.71875 C 19.585938 -34.5 23.054688 -32.542969 26.277344 -33.105469 C 28.945312 -33.570312 31.507812 -35.722656 32.425781 -40.242188 C 32.914062 -42.886719 32.898438 -45.15625 32.53125 -47.273438 C 31.023438 -55.921875 22.984375 -59.640625 15.070312 -58.261719 C 7.804688 -57 0.71875 -51.40625 -0.910156 -41.167969 L -3.464844 -24.800781 C -3.816406 -22.464844 -3.800781 -20.191406 -3.445312 -18.167969 C -1.605469 -7.585938 8.925781 -1.554688 22.449219 -3.90625 C 36.0625 -6.277344 48.148438 -16.34375 51.125 -34.113281 C 51.289062 -34.804688 51.265625 -35.464844 51.171875 -36.015625 C 50.660156 -38.960938 47.488281 -40.304688 44.636719 -39.808594 C 42.335938 -39.40625 40.226562 -37.902344 39.769531 -35.074219 Z M 39.769531 -35.074219" transform="translate(258.34 157.969)"/></g></g></g><g fill="#FD6155" fill-opacity=".502"><g><g><path d="M 46.5 -34.539062 C 44.898438 -24.6875 41.148438 -18.441406 36.550781 -17.640625 C 35.261719 -17.417969 34.675781 -18.074219 34.53125 -18.902344 C 34.402344 -19.636719 34.425781 -20.589844 34.558594 -21.464844 C 35.183594 -26.03125 35.453125 -27.214844 35.050781 -29.515625 C 34.667969 -31.722656 33.78125 -33.558594 32.25 -34.714844 C 34.570312 -36.632812 36.5625 -39.351562 37.300781 -43.269531 C 37.582031 -44.929688 37.644531 -46.742188 37.355469 -48.398438 C 36.125 -55.480469 29.421875 -60.761719 21.417969 -59.367188 C 19.671875 -59.0625 18.308594 -58.730469 16.746094 -57.890625 L 19.585938 -75.351562 C 19.820312 -76.71875 19.980469 -77.980469 19.789062 -79.085938 C 19.082031 -83.132812 15.632812 -84.996094 12.410156 -84.433594 C 9.375 -83.90625 7.152344 -81.433594 6.355469 -76.746094 L -5.082031 -6.320312 C -5.136719 -5.550781 -5.132812 -4.984375 -5.019531 -4.339844 C -4.445312 -1.027344 -1.289062 0.222656 1.839844 -0.320312 C 5.152344 -0.898438 8.3125 -3.4375 8.867188 -7.324219 L 11.421875 -25.875 C 13.671875 -24.371094 15.699219 -24.15625 17.355469 -24.441406 C 19.195312 -24.761719 20.554688 -25.664062 21.320312 -26.175781 C 21.917969 -26.5625 21.332031 -24.472656 21.125 -23.488281 C 20.636719 -20.84375 20.609375 -18.28125 21.011719 -15.980469 C 22.242188 -8.894531 27.507812 -4.789062 36.523438 -6.359375 C 48.945312 -8.519531 56.019531 -19.609375 58.136719 -34.667969 C 58.222656 -35.253906 58.234375 -35.730469 58.15625 -36.1875 C 57.675781 -38.949219 54.535156 -40.109375 51.683594 -39.613281 C 49.199219 -39.179688 46.832031 -37.535156 46.5 -34.539062 Z M 13.230469 -36.710938 L 14.070312 -41.691406 C 15.148438 -45.289062 17.695312 -47.535156 20.363281 -48 C 22.664062 -48.398438 24.621094 -47.507812 24.972656 -45.484375 C 25.070312 -44.933594 25.074219 -44.363281 24.910156 -43.671875 C 24.449219 -41.414062 22.773438 -39.605469 20.679688 -38.574219 C 19.542969 -38.566406 18.5 -38.574219 17.488281 -38.398438 C 15.648438 -38.078125 14.148438 -37.4375 13.230469 -36.710938 Z M 13.230469 -36.710938" transform="translate(299.46 150.811)"/></g></g></g><g fill="#004AAD"><g><g><path d="M 43.585938 -36.023438 C 41.296875 -23.585938 32.3125 -17.472656 24.953125 -16.191406 C 17.6875 -14.925781 9.757812 -18 8.699219 -24.074219 C 8.460938 -25.453125 8.371094 -27.050781 8.652344 -28.710938 L 14.621094 -63.019531 C 15.773438 -69.476562 19.386719 -71.050781 21.59375 -71.4375 C 23.710938 -71.804688 25.40625 -70.773438 25.886719 -68.011719 C 26.109375 -66.726562 26.03125 -65.003906 25.613281 -63.035156 C 25.449219 -62.34375 25.472656 -61.683594 25.582031 -61.039062 C 26.144531 -57.820312 29.734375 -55.699219 33.324219 -56.320312 C 36.542969 -56.882812 39.746094 -59.714844 40.347656 -66.074219 C 40.574219 -68.578125 40.464844 -70.835938 40.128906 -72.765625 C 38.367188 -82.886719 29.339844 -87.382812 18.851562 -85.554688 C 12.136719 -84.386719 2.21875 -79.816406 -0.253906 -65.167969 L -6.035156 -30.324219 C -6.550781 -27.296875 -6.558594 -24.070312 -6.078125 -21.3125 C -3.980469 -9.257812 8.738281 -1.519531 24.746094 -4.308594 C 37.535156 -6.535156 52.316406 -15.835938 54.878906 -34.859375 C 54.9375 -35.628906 54.914062 -36.289062 54.820312 -36.839844 C 54.257812 -40.0625 51.085938 -41.402344 48.234375 -40.90625 C 45.84375 -40.492188 43.75 -38.894531 43.585938 -36.023438 Z M 43.585938 -36.023438" transform="translate(116.08 177.104)"/></g></g></g><g fill="#004AAD"><g><g><path d="M 47.796875 -35.808594 C 45.667969 -24.0625 41.242188 -18.457031 37.101562 -17.738281 C 35.355469 -17.433594 34.074219 -18.253906 33.832031 -19.632812 C 33.769531 -20 33.78125 -20.476562 33.902344 -20.878906 L 37.714844 -43.625 C 38.054688 -45.488281 37.949219 -47.175781 37.675781 -48.738281 C 36.394531 -56.097656 29.609375 -60.792969 22.15625 -59.496094 C 19.949219 -59.113281 18.261719 -58.441406 16.476562 -57.277344 L 19.324219 -75.210938 C 19.527344 -76.765625 19.75 -78.222656 19.539062 -79.421875 C 18.867188 -83.285156 15.449219 -84.964844 12.410156 -84.433594 C 8.824219 -83.8125 6.984375 -81.308594 6.085938 -76.128906 L -5.105469 -9.726562 C -5.339844 -8.359375 -5.316406 -7.132812 -5.125 -6.027344 C -4.40625 -1.886719 -0.921875 0.160156 2.207031 -0.382812 C 4.875 -0.847656 7.347656 -2.984375 8.054688 -7.089844 L 13.710938 -40.492188 C 15.035156 -44.324219 17.695312 -47.535156 20.550781 -48.03125 C 22.390625 -48.351562 23.917969 -47.195312 24.207031 -45.539062 C 24.300781 -44.988281 24.304688 -44.421875 24.125 -43.820312 L 20.757812 -23.421875 C 20.40625 -21.085938 20.390625 -19 20.710938 -17.160156 C 22.214844 -8.511719 30.359375 -5.285156 38.179688 -6.644531 C 46.917969 -8.167969 56.003906 -15.339844 59.296875 -35.628906 C 59.367188 -36.304688 59.363281 -36.875 59.265625 -37.425781 C 58.769531 -40.277344 55.691406 -41.636719 52.746094 -41.125 C 50.445312 -40.722656 48.1875 -39.003906 47.796875 -35.808594 Z M 47.796875 -35.808594" transform="translate(161.064 169.274)"/></g></g></g><g fill="#004AAD"><g><g><path d="M 42.035156 -34.046875 C 39.84375 -22.671875 30.9375 -16.664062 23.117188 -15.304688 C 16.402344 -14.132812 11.609375 -16.617188 10.875 -20.851562 C 10.730469 -21.679688 10.675781 -22.523438 10.882812 -23.507812 L 11.316406 -25.382812 C 14.273438 -24.191406 17.777344 -23.664062 21.457031 -24.304688 C 29.828125 -25.761719 36.277344 -32.285156 37.320312 -41 C 37.472656 -42.828125 37.445312 -44.621094 37.171875 -46.1875 C 35.652344 -54.925781 27.582031 -60.441406 17.1875 -58.632812 C 9 -57.207031 1.828125 -51.027344 0.210938 -41.269531 L -2.480469 -24.59375 C -2.832031 -22.257812 -2.90625 -19.96875 -2.539062 -17.851562 C -0.632812 -6.902344 10.855469 -1.890625 24.289062 -4.226562 C 37.074219 -6.453125 50.523438 -15.238281 53.535156 -33.867188 C 53.683594 -34.652344 53.664062 -35.3125 53.566406 -35.863281 C 53.070312 -38.714844 50.222656 -39.832031 47.464844 -39.351562 C 44.886719 -38.902344 42.367188 -37.042969 42.035156 -34.046875 Z M 18.800781 -47.726562 C 21.378906 -48.175781 23.402344 -46.347656 23.867188 -43.679688 C 23.992188 -42.945312 24.03125 -42.191406 23.882812 -41.410156 C 23.492188 -38.210938 20.921875 -36.628906 18.164062 -36.148438 C 16.414062 -35.84375 14.601562 -35.90625 13.1875 -36.417969 L 14.15625 -42.273438 C 14.671875 -45.304688 16.683594 -47.359375 18.800781 -47.726562 Z M 18.800781 -47.726562" transform="translate(210.372 160.691)"/></g></g></g><g fill="#004AAD"><g><g><path d="M 39.769531 -35.074219 C 37.144531 -22.390625 28.988281 -16.421875 22 -15.203125 C 15.648438 -14.097656 10.960938 -17.074219 10.144531 -21.765625 C 9.96875 -22.777344 9.960938 -23.914062 10.121094 -25.175781 L 12.960938 -42.066406 C 13.40625 -44.417969 15.003906 -46.117188 16.476562 -46.375 C 18.316406 -46.695312 19.429688 -45.75 19.703125 -44.1875 C 19.878906 -43.175781 19.703125 -42.007812 19.28125 -40.609375 C 18.980469 -39.609375 18.867188 -38.640625 19.027344 -37.71875 C 19.585938 -34.5 23.054688 -32.542969 26.277344 -33.105469 C 28.945312 -33.570312 31.507812 -35.722656 32.425781 -40.242188 C 32.914062 -42.886719 32.898438 -45.15625 32.53125 -47.273438 C 31.023438 -55.921875 22.984375 -59.640625 15.070312 -58.261719 C 7.804688 -57 0.71875 -51.40625 -0.910156 -41.167969 L -3.464844 -24.800781 C -3.816406 -22.464844 -3.800781 -20.191406 -3.445312 -18.167969 C -1.605469 -7.585938 8.925781 -1.554688 22.449219 -3.90625 C 36.0625 -6.277344 48.148438 -16.34375 51.125 -34.113281 C 51.289062 -34.804688 51.265625 -35.464844 51.171875 -36.015625 C 50.660156 -38.960938 47.488281 -40.304688 44.636719 -39.808594 C 42.335938 -39.40625 40.226562 -37.902344 39.769531 -35.074219 Z M 39.769531 -35.074219" transform="translate(253.976 153.101)"/></g></g></g><g fill="#004AAD"><g><g><path d="M 46.5 -34.539062 C 44.898438 -24.6875 41.148438 -18.441406 36.550781 -17.640625 C 35.261719 -17.417969 34.675781 -18.074219 34.53125 -18.902344 C 34.402344 -19.636719 34.425781 -20.589844 34.558594 -21.464844 C 35.183594 -26.03125 35.453125 -27.214844 35.050781 -29.515625 C 34.667969 -31.722656 33.78125 -33.558594 32.25 -34.714844 C 34.570312 -36.632812 36.5625 -39.351562 37.300781 -43.269531 C 37.582031 -44.929688 37.644531 -46.742188 37.355469 -48.398438 C 36.125 -55.480469 29.421875 -60.761719 21.417969 -59.367188 C 19.671875 -59.0625 18.308594 -58.730469 16.746094 -57.890625 L 19.585938 -75.351562 C 19.820312 -76.71875 19.980469 -77.980469 19.789062 -79.085938 C 19.082031 -83.132812 15.632812 -84.996094 12.410156 -84.433594 C 9.375 -83.90625 7.152344 -81.433594 6.355469 -76.746094 L -5.082031 -6.320312 C -5.136719 -5.550781 -5.132812 -4.984375 -5.019531 -4.339844 C -4.445312 -1.027344 -1.289062 0.222656 1.839844 -0.320312 C 5.152344 -0.898438 8.3125 -3.4375 8.867188 -7.324219 L 11.421875 -25.875 C 13.671875 -24.371094 15.699219 -24.15625 17.355469 -24.441406 C 19.195312 -24.761719 20.554688 -25.664062 21.320312 -26.175781 C 21.917969 -26.5625 21.332031 -24.472656 21.125 -23.488281 C 20.636719 -20.84375 20.609375 -18.28125 21.011719 -15.980469 C 22.242188 -8.894531 27.507812 -4.789062 36.523438 -6.359375 C 48.945312 -8.519531 56.019531 -19.609375 58.136719 -34.667969 C 58.222656 -35.253906 58.234375 -35.730469 58.15625 -36.1875 C 57.675781 -38.949219 54.535156 -40.109375 51.683594 -39.613281 C 49.199219 -39.179688 46.832031 -37.535156 46.5 -34.539062 Z M 13.230469 -36.710938 L 14.070312 -41.691406 C 15.148438 -45.289062 17.695312 -47.535156 20.363281 -48 C 22.664062 -48.398438 24.621094 -47.507812 24.972656 -45.484375 C 25.070312 -44.933594 25.074219 -44.363281 24.910156 -43.671875 C 24.449219 -41.414062 22.773438 -39.605469 20.679688 -38.574219 C 19.542969 -38.566406 18.5 -38.574219 17.488281 -38.398438 C 15.648438 -38.078125 14.148438 -37.4375 13.230469 -36.710938 Z M 13.230469 -36.710938" transform="translate(295.096 145.943)"/></g></g></g><g fill="#FD6155" fill-opacity=".302"><g><g><path d="M 7.523438 -68.371094 L -3.578125 -9.0625 C -3.804688 -7.753906 -3.808594 -6.648438 -3.644531 -5.570312 C -3.070312 -1.746094 0 0 2.992188 -0.453125 C 5.898438 -0.890625 8.578125 -3.421875 9.433594 -7.886719 L 20.535156 -67.191406 C 20.761719 -68.5 20.765625 -69.605469 20.601562 -70.6875 C 20.023438 -74.507812 16.957031 -76.253906 13.964844 -75.804688 C 11.054688 -75.363281 8.117188 -72.878906 7.523438 -68.371094 Z M 7.523438 -68.371094" transform="translate(133.462 264.337)"/></g></g></g><g fill="#FD6155" fill-opacity=".302"><g><g><path d="M 26.128906 -27.917969 C 24.183594 -18.273438 19.613281 -13.078125 14.792969 -12.347656 C 11.800781 -11.898438 9.699219 -13.449219 9.359375 -15.695312 C 9.269531 -16.273438 9.335938 -16.964844 9.414062 -17.570312 L 14.058594 -41.988281 L 19.460938 -42.804688 C 23.699219 -43.445312 25.488281 -46.773438 25.074219 -49.515625 C 24.75 -51.675781 23.046875 -53.375 19.890625 -52.898438 L 16.148438 -52.332031 L 19.269531 -69.378906 C 19.347656 -69.984375 19.355469 -70.496094 19.28125 -70.996094 C 18.816406 -74.070312 16.277344 -76.238281 12.621094 -75.683594 C 9.878906 -75.269531 7.84375 -73.007812 7.285156 -69.949219 L 3.433594 -50.414062 L -0.0546875 -49.886719 C -4.542969 -49.207031 -6.027344 -46.09375 -5.625 -43.433594 C -5.273438 -41.109375 -3.558594 -39.328125 -1.316406 -39.664062 L 1.425781 -40.078125 L -2.53125 -18.996094 L -2.542969 -19.082031 C -2.90625 -16.984375 -2.960938 -15.105469 -2.699219 -13.363281 C -1.417969 -4.886719 6.898438 -1.042969 15.457031 -2.335938 C 26.09375 -3.941406 33.792969 -13.179688 36.472656 -27.523438 C 36.550781 -28.128906 36.628906 -28.738281 36.554688 -29.234375 C 36.175781 -31.730469 33.527344 -32.945312 30.953125 -32.554688 C 28.875 -32.242188 26.722656 -30.726562 26.128906 -27.917969 Z M 26.128906 -27.917969" transform="translate(155.232 261.049)"/></g></g></g><g fill="#FD6155" fill-opacity=".302"><g><g><path d="M 50.824219 -34.367188 C 49.84375 -29.035156 46.285156 -25.011719 41.351562 -23.925781 C 41.382812 -24.269531 41.429688 -24.53125 41.542969 -24.890625 L 47.546875 -57.753906 C 47.910156 -59.851562 47.964844 -61.730469 47.675781 -63.640625 C 46.183594 -73.53125 35.808594 -79.1875 25.003906 -77.554688 C 16.945312 -76.335938 7.464844 -70.996094 5.085938 -58.058594 L -1.0625 -24.488281 C -1.519531 -21.871094 -1.699219 -19.125 -1.347656 -16.796875 C 0.273438 -6.074219 10.136719 -1.53125 20.195312 -3.050781 C 26.425781 -3.992188 32.726562 -6.726562 37.117188 -13.679688 C 38.652344 -13.65625 40.351562 -13.660156 42.097656 -13.921875 C 52.316406 -15.46875 60.085938 -23.695312 60.984375 -32.925781 C 61.039062 -33.699219 61.019531 -34.375 60.933594 -34.957031 C 60.457031 -38.117188 57.902344 -39.261719 55.492188 -38.898438 C 53.25 -38.558594 51.109375 -36.960938 50.824219 -34.367188 Z M 19.027344 -13.582031 C 15.371094 -13.03125 12.085938 -15.085938 11.535156 -18.742188 C 11.410156 -19.574219 11.410156 -20.679688 11.664062 -21.820312 L 18.304688 -57.757812 C 19.375 -63.617188 23.261719 -66.582031 26.835938 -67.121094 C 30.574219 -67.6875 33.957031 -65.5625 34.496094 -61.988281 C 34.621094 -61.160156 34.582031 -60.300781 34.398438 -59.253906 L 29.644531 -32.78125 C 28.941406 -32.929688 27.824219 -33.015625 26.992188 -32.890625 C 22.917969 -32.277344 20.167969 -28.546875 20.769531 -24.558594 C 21.148438 -22.0625 22.5625 -20.578125 25.589844 -17.976562 C 23.921875 -15.511719 21.605469 -13.972656 19.027344 -13.582031 Z M 19.027344 -13.582031" transform="translate(214.145 252.15)"/></g></g></g><g fill="#FD6155" fill-opacity=".302"><g><g><path d="M 43.976562 -31.292969 C 41.746094 -20.753906 37.8125 -15.828125 33.992188 -15.25 C 32.496094 -15.023438 31.371094 -15.703125 31.195312 -16.867188 C 31.144531 -17.199219 31.152344 -17.710938 31.257812 -18.152344 L 36.953125 -47.402344 C 37.160156 -48.28125 37.132812 -49.042969 37.019531 -49.789062 C 36.515625 -53.113281 33.269531 -54.917969 30.277344 -54.46875 C 27.867188 -54.101562 25.585938 -52.3125 24.867188 -48.636719 L 19.582031 -21.742188 C 17.945312 -16.820312 14.960938 -12.375 11.636719 -11.871094 C 10.390625 -11.683594 9.597656 -12.414062 9.410156 -13.660156 C 9.3125 -14.324219 9.3125 -15.429688 9.4375 -16.300781 L 14.578125 -43.597656 C 14.773438 -44.5625 14.816406 -45.417969 14.6875 -46.246094 C 14.175781 -49.65625 10.832031 -51.53125 7.757812 -51.066406 C 5.429688 -50.714844 3.148438 -48.925781 2.488281 -45.425781 L -2.953125 -15.617188 C -3.226562 -14.046875 -3.25 -12.515625 -3.035156 -11.101562 C -2.019531 -4.371094 4.15625 -0.628906 11.136719 -1.683594 C 16.121094 -2.433594 19.496094 -5.410156 22.070312 -9.199219 C 25.019531 -5.988281 29.832031 -4.507812 34.820312 -5.257812 C 42.714844 -6.453125 51.03125 -12.722656 54.320312 -30.898438 C 54.414062 -31.421875 54.421875 -31.933594 54.34375 -32.433594 C 53.941406 -35.09375 51.210938 -36.292969 48.636719 -35.90625 C 46.476562 -35.578125 44.40625 -34.078125 43.976562 -31.292969 Z M 43.976562 -31.292969" transform="translate(265.33 244.42)"/></g></g></g><g fill="#FD6155" fill-opacity=".302"><g><g><path d="M 26.128906 -27.917969 C 24.183594 -18.273438 19.613281 -13.078125 14.792969 -12.347656 C 11.800781 -11.898438 9.699219 -13.449219 9.359375 -15.695312 C 9.269531 -16.273438 9.335938 -16.964844 9.414062 -17.570312 L 14.058594 -41.988281 L 19.460938 -42.804688 C 23.699219 -43.445312 25.488281 -46.773438 25.074219 -49.515625 C 24.75 -51.675781 23.046875 -53.375 19.890625 -52.898438 L 16.148438 -52.332031 L 19.269531 -69.378906 C 19.347656 -69.984375 19.355469 -70.496094 19.28125 -70.996094 C 18.816406 -74.070312 16.277344 -76.238281 12.621094 -75.683594 C 9.878906 -75.269531 7.84375 -73.007812 7.285156 -69.949219 L 3.433594 -50.414062 L -0.0546875 -49.886719 C -4.542969 -49.207031 -6.027344 -46.09375 -5.625 -43.433594 C -5.273438 -41.109375 -3.558594 -39.328125 -1.316406 -39.664062 L 1.425781 -40.078125 L -2.53125 -18.996094 L -2.542969 -19.082031 C -2.90625 -16.984375 -2.960938 -15.105469 -2.699219 -13.363281 C -1.417969 -4.886719 6.898438 -1.042969 15.457031 -2.335938 C 26.09375 -3.941406 33.792969 -13.179688 36.472656 -27.523438 C 36.550781 -28.128906 36.628906 -28.738281 36.554688 -29.234375 C 36.175781 -31.730469 33.527344 -32.945312 30.953125 -32.554688 C 28.875 -32.242188 26.722656 -30.726562 26.128906 -27.917969 Z M 26.128906 -27.917969" transform="translate(310.117 237.654)"/></g></g></g><g fill="#FD6155" fill-opacity=".302"><g><g><path d="M 31.179688 -27.660156 L 42.359375 -75.757812 C 43.636719 -85.894531 31.335938 -85.734375 29.71875 -76.738281 L 20.386719 -29.34375 C 18.566406 -22.269531 29.472656 -19.835938 31.179688 -27.660156 Z M 21.542969 -17.195312 C 17.804688 -16.628906 15.179688 -13.171875 15.757812 -9.351562 C 16.320312 -5.609375 19.863281 -3 23.601562 -3.566406 C 27.421875 -4.140625 30.035156 -7.679688 29.46875 -11.421875 C 28.890625 -15.242188 25.363281 -17.769531 21.542969 -17.195312 Z M 21.542969 -17.195312" transform="translate(337.289 233.55)"/></g></g></g><g fill="#FD6155" fill-opacity=".502"><g><g><path d="M 7.523438 -68.371094 L -3.578125 -9.0625 C -3.804688 -7.753906 -3.808594 -6.648438 -3.644531 -5.570312 C -3.070312 -1.746094 0 0 2.992188 -0.453125 C 5.898438 -0.890625 8.578125 -3.421875 9.433594 -7.886719 L 20.535156 -67.191406 C 20.761719 -68.5 20.765625 -69.605469 20.601562 -70.6875 C 20.023438 -74.507812 16.957031 -76.253906 13.964844 -75.804688 C 11.054688 -75.363281 8.117188 -72.878906 7.523438 -68.371094 Z M 7.523438 -68.371094" transform="translate(129.634 259.87)"/></g></g></g><g fill="#FD6155" fill-opacity=".502"><g><g><path d="M 26.128906 -27.917969 C 24.183594 -18.273438 19.613281 -13.078125 14.792969 -12.347656 C 11.800781 -11.898438 9.699219 -13.449219 9.359375 -15.695312 C 9.269531 -16.273438 9.335938 -16.964844 9.414062 -17.570312 L 14.058594 -41.988281 L 19.460938 -42.804688 C 23.699219 -43.445312 25.488281 -46.773438 25.074219 -49.515625 C 24.75 -51.675781 23.046875 -53.375 19.890625 -52.898438 L 16.148438 -52.332031 L 19.269531 -69.378906 C 19.347656 -69.984375 19.355469 -70.496094 19.28125 -70.996094 C 18.816406 -74.070312 16.277344 -76.238281 12.621094 -75.683594 C 9.878906 -75.269531 7.84375 -73.007812 7.285156 -69.949219 L 3.433594 -50.414062 L -0.0546875 -49.886719 C -4.542969 -49.207031 -6.027344 -46.09375 -5.625 -43.433594 C -5.273438 -41.109375 -3.558594 -39.328125 -1.316406 -39.664062 L 1.425781 -40.078125 L -2.53125 -18.996094 L -2.542969 -19.082031 C -2.90625 -16.984375 -2.960938 -15.105469 -2.699219 -13.363281 C -1.417969 -4.886719 6.898438 -1.042969 15.457031 -2.335938 C 26.09375 -3.941406 33.792969 -13.179688 36.472656 -27.523438 C 36.550781 -28.128906 36.628906 -28.738281 36.554688 -29.234375 C 36.175781 -31.730469 33.527344 -32.945312 30.953125 -32.554688 C 28.875 -32.242188 26.722656 -30.726562 26.128906 -27.917969 Z M 26.128906 -27.917969" transform="translate(151.405 256.581)"/></g></g></g><g fill="#FD6155" fill-opacity=".502"><g><g><path d="M 50.824219 -34.367188 C 49.84375 -29.035156 46.285156 -25.011719 41.351562 -23.925781 C 41.382812 -24.269531 41.429688 -24.53125 41.542969 -24.890625 L 47.546875 -57.753906 C 47.910156 -59.851562 47.964844 -61.730469 47.675781 -63.640625 C 46.183594 -73.53125 35.808594 -79.1875 25.003906 -77.554688 C 16.945312 -76.335938 7.464844 -70.996094 5.085938 -58.058594 L -1.0625 -24.488281 C -1.519531 -21.871094 -1.699219 -19.125 -1.347656 -16.796875 C 0.273438 -6.074219 10.136719 -1.53125 20.195312 -3.050781 C 26.425781 -3.992188 32.726562 -6.726562 37.117188 -13.679688 C 38.652344 -13.65625 40.351562 -13.660156 42.097656 -13.921875 C 52.316406 -15.46875 60.085938 -23.695312 60.984375 -32.925781 C 61.039062 -33.699219 61.019531 -34.375 60.933594 -34.957031 C 60.457031 -38.117188 57.902344 -39.261719 55.492188 -38.898438 C 53.25 -38.558594 51.109375 -36.960938 50.824219 -34.367188 Z M 19.027344 -13.582031 C 15.371094 -13.03125 12.085938 -15.085938 11.535156 -18.742188 C 11.410156 -19.574219 11.410156 -20.679688 11.664062 -21.820312 L 18.304688 -57.757812 C 19.375 -63.617188 23.261719 -66.582031 26.835938 -67.121094 C 30.574219 -67.6875 33.957031 -65.5625 34.496094 -61.988281 C 34.621094 -61.160156 34.582031 -60.300781 34.398438 -59.253906 L 29.644531 -32.78125 C 28.941406 -32.929688 27.824219 -33.015625 26.992188 -32.890625 C 22.917969 -32.277344 20.167969 -28.546875 20.769531 -24.558594 C 21.148438 -22.0625 22.5625 -20.578125 25.589844 -17.976562 C 23.921875 -15.511719 21.605469 -13.972656 19.027344 -13.582031 Z M 19.027344 -13.582031" transform="translate(210.317 247.683)"/></g></g></g><g fill="#FD6155" fill-opacity=".502"><g><g><path d="M 43.976562 -31.292969 C 41.746094 -20.753906 37.8125 -15.828125 33.992188 -15.25 C 32.496094 -15.023438 31.371094 -15.703125 31.195312 -16.867188 C 31.144531 -17.199219 31.152344 -17.710938 31.257812 -18.152344 L 36.953125 -47.402344 C 37.160156 -48.28125 37.132812 -49.042969 37.019531 -49.789062 C 36.515625 -53.113281 33.269531 -54.917969 30.277344 -54.46875 C 27.867188 -54.101562 25.585938 -52.3125 24.867188 -48.636719 L 19.582031 -21.742188 C 17.945312 -16.820312 14.960938 -12.375 11.636719 -11.871094 C 10.390625 -11.683594 9.597656 -12.414062 9.410156 -13.660156 C 9.3125 -14.324219 9.3125 -15.429688 9.4375 -16.300781 L 14.578125 -43.597656 C 14.773438 -44.5625 14.816406 -45.417969 14.6875 -46.246094 C 14.175781 -49.65625 10.832031 -51.53125 7.757812 -51.066406 C 5.429688 -50.714844 3.148438 -48.925781 2.488281 -45.425781 L -2.953125 -15.617188 C -3.226562 -14.046875 -3.25 -12.515625 -3.035156 -11.101562 C -2.019531 -4.371094 4.15625 -0.628906 11.136719 -1.683594 C 16.121094 -2.433594 19.496094 -5.410156 22.070312 -9.199219 C 25.019531 -5.988281 29.832031 -4.507812 34.820312 -5.257812 C 42.714844 -6.453125 51.03125 -12.722656 54.320312 -30.898438 C 54.414062 -31.421875 54.421875 -31.933594 54.34375 -32.433594 C 53.941406 -35.09375 51.210938 -36.292969 48.636719 -35.90625 C 46.476562 -35.578125 44.40625 -34.078125 43.976562 -31.292969 Z M 43.976562 -31.292969" transform="translate(261.502 239.951)"/></g></g></g><g fill="#FD6155" fill-opacity=".502"><g><g><path d="M 26.128906 -27.917969 C 24.183594 -18.273438 19.613281 -13.078125 14.792969 -12.347656 C 11.800781 -11.898438 9.699219 -13.449219 9.359375 -15.695312 C 9.269531 -16.273438 9.335938 -16.964844 9.414062 -17.570312 L 14.058594 -41.988281 L 19.460938 -42.804688 C 23.699219 -43.445312 25.488281 -46.773438 25.074219 -49.515625 C 24.75 -51.675781 23.046875 -53.375 19.890625 -52.898438 L 16.148438 -52.332031 L 19.269531 -69.378906 C 19.347656 -69.984375 19.355469 -70.496094 19.28125 -70.996094 C 18.816406 -74.070312 16.277344 -76.238281 12.621094 -75.683594 C 9.878906 -75.269531 7.84375 -73.007812 7.285156 -69.949219 L 3.433594 -50.414062 L -0.0546875 -49.886719 C -4.542969 -49.207031 -6.027344 -46.09375 -5.625 -43.433594 C -5.273438 -41.109375 -3.558594 -39.328125 -1.316406 -39.664062 L 1.425781 -40.078125 L -2.53125 -18.996094 L -2.542969 -19.082031 C -2.90625 -16.984375 -2.960938 -15.105469 -2.699219 -13.363281 C -1.417969 -4.886719 6.898438 -1.042969 15.457031 -2.335938 C 26.09375 -3.941406 33.792969 -13.179688 36.472656 -27.523438 C 36.550781 -28.128906 36.628906 -28.738281 36.554688 -29.234375 C 36.175781 -31.730469 33.527344 -32.945312 30.953125 -32.554688 C 28.875 -32.242188 26.722656 -30.726562 26.128906 -27.917969 Z M 26.128906 -27.917969" transform="translate(306.29 233.186)"/></g></g></g><g fill="#FD6155" fill-opacity=".502"><g><g><path d="M 31.179688 -27.660156 L 42.359375 -75.757812 C 43.636719 -85.894531 31.335938 -85.734375 29.71875 -76.738281 L 20.386719 -29.34375 C 18.566406 -22.269531 29.472656 -19.835938 31.179688 -27.660156 Z M 21.542969 -17.195312 C 17.804688 -16.628906 15.179688 -13.171875 15.757812 -9.351562 C 16.320312 -5.609375 19.863281 -3 23.601562 -3.566406 C 27.421875 -4.140625 30.035156 -7.679688 29.46875 -11.421875 C 28.890625 -15.242188 25.363281 -17.769531 21.542969 -17.195312 Z M 21.542969 -17.195312" transform="translate(333.46 229.082)"/></g></g></g><g fill="#004AAD"><g><g><path d="M 7.523438 -68.371094 L -3.578125 -9.0625 C -3.804688 -7.753906 -3.808594 -6.648438 -3.644531 -5.570312 C -3.070312 -1.746094 0 0 2.992188 -0.453125 C 5.898438 -0.890625 8.578125 -3.421875 9.433594 -7.886719 L 20.535156 -67.191406 C 20.761719 -68.5 20.765625 -69.605469 20.601562 -70.6875 C 20.023438 -74.507812 16.957031 -76.253906 13.964844 -75.804688 C 11.054688 -75.363281 8.117188 -72.878906 7.523438 -68.371094 Z M 7.523438 -68.371094" transform="translate(125.806 255.402)"/></g></g></g><g fill="#004AAD"><g><g><path d="M 26.128906 -27.917969 C 24.183594 -18.273438 19.613281 -13.078125 14.792969 -12.347656 C 11.800781 -11.898438 9.699219 -13.449219 9.359375 -15.695312 C 9.269531 -16.273438 9.335938 -16.964844 9.414062 -17.570312 L 14.058594 -41.988281 L 19.460938 -42.804688 C 23.699219 -43.445312 25.488281 -46.773438 25.074219 -49.515625 C 24.75 -51.675781 23.046875 -53.375 19.890625 -52.898438 L 16.148438 -52.332031 L 19.269531 -69.378906 C 19.347656 -69.984375 19.355469 -70.496094 19.28125 -70.996094 C 18.816406 -74.070312 16.277344 -76.238281 12.621094 -75.683594 C 9.878906 -75.269531 7.84375 -73.007812 7.285156 -69.949219 L 3.433594 -50.414062 L -0.0546875 -49.886719 C -4.542969 -49.207031 -6.027344 -46.09375 -5.625 -43.433594 C -5.273438 -41.109375 -3.558594 -39.328125 -1.316406 -39.664062 L 1.425781 -40.078125 L -2.53125 -18.996094 L -2.542969 -19.082031 C -2.90625 -16.984375 -2.960938 -15.105469 -2.699219 -13.363281 C -1.417969 -4.886719 6.898438 -1.042969 15.457031 -2.335938 C 26.09375 -3.941406 33.792969 -13.179688 36.472656 -27.523438 C 36.550781 -28.128906 36.628906 -28.738281 36.554688 -29.234375 C 36.175781 -31.730469 33.527344 -32.945312 30.953125 -32.554688 C 28.875 -32.242188 26.722656 -30.726562 26.128906 -27.917969 Z M 26.128906 -27.917969" transform="translate(147.577 252.113)"/></g></g></g><g fill="#004AAD"><g><g><path d="M 50.824219 -34.367188 C 49.84375 -29.035156 46.285156 -25.011719 41.351562 -23.925781 C 41.382812 -24.269531 41.429688 -24.53125 41.542969 -24.890625 L 47.546875 -57.753906 C 47.910156 -59.851562 47.964844 -61.730469 47.675781 -63.640625 C 46.183594 -73.53125 35.808594 -79.1875 25.003906 -77.554688 C 16.945312 -76.335938 7.464844 -70.996094 5.085938 -58.058594 L -1.0625 -24.488281 C -1.519531 -21.871094 -1.699219 -19.125 -1.347656 -16.796875 C 0.273438 -6.074219 10.136719 -1.53125 20.195312 -3.050781 C 26.425781 -3.992188 32.726562 -6.726562 37.117188 -13.679688 C 38.652344 -13.65625 40.351562 -13.660156 42.097656 -13.921875 C 52.316406 -15.46875 60.085938 -23.695312 60.984375 -32.925781 C 61.039062 -33.699219 61.019531 -34.375 60.933594 -34.957031 C 60.457031 -38.117188 57.902344 -39.261719 55.492188 -38.898438 C 53.25 -38.558594 51.109375 -36.960938 50.824219 -34.367188 Z M 19.027344 -13.582031 C 15.371094 -13.03125 12.085938 -15.085938 11.535156 -18.742188 C 11.410156 -19.574219 11.410156 -20.679688 11.664062 -21.820312 L 18.304688 -57.757812 C 19.375 -63.617188 23.261719 -66.582031 26.835938 -67.121094 C 30.574219 -67.6875 33.957031 -65.5625 34.496094 -61.988281 C 34.621094 -61.160156 34.582031 -60.300781 34.398438 -59.253906 L 29.644531 -32.78125 C 28.941406 -32.929688 27.824219 -33.015625 26.992188 -32.890625 C 22.917969 -32.277344 20.167969 -28.546875 20.769531 -24.558594 C 21.148438 -22.0625 22.5625 -20.578125 25.589844 -17.976562 C 23.921875 -15.511719 21.605469 -13.972656 19.027344 -13.582031 Z M 19.027344 -13.582031" transform="translate(206.49 243.215)"/></g></g></g><g fill="#004AAD"><g><g><path d="M 43.976562 -31.292969 C 41.746094 -20.753906 37.8125 -15.828125 33.992188 -15.25 C 32.496094 -15.023438 31.371094 -15.703125 31.195312 -16.867188 C 31.144531 -17.199219 31.152344 -17.710938 31.257812 -18.152344 L 36.953125 -47.402344 C 37.160156 -48.28125 37.132812 -49.042969 37.019531 -49.789062 C 36.515625 -53.113281 33.269531 -54.917969 30.277344 -54.46875 C 27.867188 -54.101562 25.585938 -52.3125 24.867188 -48.636719 L 19.582031 -21.742188 C 17.945312 -16.820312 14.960938 -12.375 11.636719 -11.871094 C 10.390625 -11.683594 9.597656 -12.414062 9.410156 -13.660156 C 9.3125 -14.324219 9.3125 -15.429688 9.4375 -16.300781 L 14.578125 -43.597656 C 14.773438 -44.5625 14.816406 -45.417969 14.6875 -46.246094 C 14.175781 -49.65625 10.832031 -51.53125 7.757812 -51.066406 C 5.429688 -50.714844 3.148438 -48.925781 2.488281 -45.425781 L -2.953125 -15.617188 C -3.226562 -14.046875 -3.25 -12.515625 -3.035156 -11.101562 C -2.019531 -4.371094 4.15625 -0.628906 11.136719 -1.683594 C 16.121094 -2.433594 19.496094 -5.410156 22.070312 -9.199219 C 25.019531 -5.988281 29.832031 -4.507812 34.820312 -5.257812 C 42.714844 -6.453125 51.03125 -12.722656 54.320312 -30.898438 C 54.414062 -31.421875 54.421875 -31.933594 54.34375 -32.433594 C 53.941406 -35.09375 51.210938 -36.292969 48.636719 -35.90625 C 46.476562 -35.578125 44.40625 -34.078125 43.976562 -31.292969 Z M 43.976562 -31.292969" transform="translate(257.674 235.483)"/></g></g></g><g fill="#004AAD"><g><g><path d="M 26.128906 -27.917969 C 24.183594 -18.273438 19.613281 -13.078125 14.792969 -12.347656 C 11.800781 -11.898438 9.699219 -13.449219 9.359375 -15.695312 C 9.269531 -16.273438 9.335938 -16.964844 9.414062 -17.570312 L 14.058594 -41.988281 L 19.460938 -42.804688 C 23.699219 -43.445312 25.488281 -46.773438 25.074219 -49.515625 C 24.75 -51.675781 23.046875 -53.375 19.890625 -52.898438 L 16.148438 -52.332031 L 19.269531 -69.378906 C 19.347656 -69.984375 19.355469 -70.496094 19.28125 -70.996094 C 18.816406 -74.070312 16.277344 -76.238281 12.621094 -75.683594 C 9.878906 -75.269531 7.84375 -73.007812 7.285156 -69.949219 L 3.433594 -50.414062 L -0.0546875 -49.886719 C -4.542969 -49.207031 -6.027344 -46.09375 -5.625 -43.433594 C -5.273438 -41.109375 -3.558594 -39.328125 -1.316406 -39.664062 L 1.425781 -40.078125 L -2.53125 -18.996094 L -2.542969 -19.082031 C -2.90625 -16.984375 -2.960938 -15.105469 -2.699219 -13.363281 C -1.417969 -4.886719 6.898438 -1.042969 15.457031 -2.335938 C 26.09375 -3.941406 33.792969 -13.179688 36.472656 -27.523438 C 36.550781 -28.128906 36.628906 -28.738281 36.554688 -29.234375 C 36.175781 -31.730469 33.527344 -32.945312 30.953125 -32.554688 C 28.875 -32.242188 26.722656 -30.726562 26.128906 -27.917969 Z M 26.128906 -27.917969" transform="translate(302.461 228.719)"/></g></g></g><g fill="#004AAD"><g><g><path d="M 31.179688 -27.660156 L 42.359375 -75.757812 C 43.636719 -85.894531 31.335938 -85.734375 29.71875 -76.738281 L 20.386719 -29.34375 C 18.566406 -22.269531 29.472656 -19.835938 31.179688 -27.660156 Z M 21.542969 -17.195312 C 17.804688 -16.628906 15.179688 -13.171875 15.757812 -9.351562 C 16.320312 -5.609375 19.863281 -3 23.601562 -3.566406 C 27.421875 -4.140625 30.035156 -7.679688 29.46875 -11.421875 C 28.890625 -15.242188 25.363281 -17.769531 21.542969 -17.195312 Z M 21.542969 -17.195312" transform="translate(329.633 224.614)"/></g></g></g></svg>